<svg width="18" height="14" viewBox="0 0 18 14" fill="none" xmlns="http://www.w3.org/2000/svg">
<path d="M16.8 0H1.2C0.88174 0 0.576516 0.126428 0.351472 0.351472C0.126428 0.576515 0 0.88174 0 1.2V12.8C0 13.1183 0.126428 13.4235 0.351472 13.6485C0.576516 13.8736 0.88174 14 1.2 14H16.8C17.1183 14 17.4235 13.8736 17.6485 13.6485C17.8736 13.4235 18 13.1183 18 12.8V1.2C18 0.88174 17.8736 0.576515 17.6485 0.351472C17.4235 0.126428 17.1183 0 16.8 0ZM9 8.8C9 8.95913 8.93679 9.11174 8.82426 9.22427C8.71174 9.33679 8.55913 9.4 8.4 9.4C8.24087 9.4 8.08826 9.33679 7.97574 9.22427C7.86321 9.11174 7.8 8.95913 7.8 8.8V6.64825L6.4245 8.0245C6.36878 8.08029 6.3026 8.12454 6.22976 8.15474C6.15693 8.18493 6.07885 8.20047 6 8.20047C5.92115 8.20047 5.84307 8.18493 5.77024 8.15474C5.6974 8.12454 5.63122 8.08029 5.5755 8.0245L4.2 6.64825V8.8C4.2 8.95913 4.13679 9.11174 4.02426 9.22427C3.91174 9.33679 3.75913 9.4 3.6 9.4C3.44087 9.4 3.28826 9.33679 3.17574 9.22427C3.06321 9.11174 3 8.95913 3 8.8V5.2C2.99991 5.08126 3.03505 4.96517 3.10097 4.86641C3.16689 4.76765 3.26063 4.69068 3.37033 4.64523C3.48002 4.59977 3.60073 4.58789 3.71718 4.61108C3.83364 4.63427 3.94059 4.69149 4.0245 4.7755L6 6.75175L7.9755 4.7755C8.05941 4.69149 8.16636 4.63427 8.28282 4.61108C8.39927 4.58789 8.51998 4.59977 8.62967 4.64523C8.73937 4.69068 8.83311 4.76765 8.89903 4.86641C8.96496 4.96517 9.00009 5.08126 9 5.2V8.8ZM14.8245 7.4245L13.0245 9.2245C12.9688 9.28029 12.9026 9.32454 12.8298 9.35474C12.7569 9.38493 12.6788 9.40047 12.6 9.40047C12.5212 9.40047 12.4431 9.38493 12.3702 9.35474C12.2974 9.32454 12.2312 9.28029 12.1755 9.2245L10.3755 7.4245C10.2629 7.31192 10.1997 7.15922 10.1997 7C10.1997 6.84078 10.2629 6.68808 10.3755 6.5755C10.4881 6.46292 10.6408 6.39967 10.8 6.39967C10.9592 6.39967 11.1119 6.46292 11.2245 6.5755L12 7.35175V5.2C12 5.04087 12.0632 4.88826 12.1757 4.77574C12.2883 4.66321 12.4409 4.6 12.6 4.6C12.7591 4.6 12.9117 4.66321 13.0243 4.77574C13.1368 4.88826 13.2 5.04087 13.2 5.2V7.35175L13.9755 6.5755C14.0312 6.51975 14.0974 6.47553 14.1703 6.44536C14.2431 6.41519 14.3212 6.39967 14.4 6.39967C14.4788 6.39967 14.5569 6.41519 14.6297 6.44536C14.7026 6.47553 14.7688 6.51975 14.8245 6.5755C14.8802 6.63125 14.9245 6.69743 14.9546 6.77026C14.9848 6.8431 15.0003 6.92116 15.0003 7C15.0003 7.07884 14.9848 7.1569 14.9546 7.22974C14.9245 7.30257 14.8802 7.36875 14.8245 7.4245Z" fill="#444444"/>
</svg>
